<svg width="128" height="97" viewBox="0 0 128 97" xmlns="http://www.w3.org/2000/svg">
  <path
    d="M127.347 84.2326L118.523 75.409C118.2 75.095 117.792 74.8827 117.35 74.7981C116.908 74.7135 116.45 74.7605 116.034 74.9332C115.618 75.1059 115.262 75.3968 115.01 75.7698C114.757 76.1428 114.62 76.5817 114.614 77.032V79.135H102.819C98.207 84.5696 92.5069 88.9772 86.0864 92.0732C85.7436 92.2332 85.4007 92.3932 85.0579 92.5303H114.614V94.656C114.624 95.1046 114.763 95.5409 115.016 95.9115C115.269 96.2821 115.625 96.5711 116.039 96.7432C116.454 96.9152 116.909 96.963 117.35 96.8806C117.791 96.7982 118.199 96.5892 118.523 96.279L127.347 87.4556C127.766 87.0237 128 86.4457 128 85.8441C128 85.2424 127.766 84.6644 127.347 84.2326Z" />
  <path
    d="M47.2494 74.5632C42.3077 71.6522 38.2112 67.5021 35.3648 62.523C32.5184 57.5438 31.0207 51.9081 31.0196 46.1728C31.9629 7.54328 85.1467 0.844861 95.8473 37.6233L98.7731 34.6975C99.4765 34.0236 100.313 33.5036 101.228 33.1706C102.144 32.8377 103.118 32.699 104.09 32.7635C105.062 32.828 106.01 33.0943 106.874 33.5453C107.737 33.9963 108.497 34.6223 109.105 35.3832C95.3356 -17.4382 19.0264 -8.8834 17.6245 46.1725C17.5794 56.4628 21.0107 66.4668 27.3622 74.5632H47.2494Z" />
  <path
    d="M110.157 50.6528C111.621 50.6281 113.914 51.0189 114.546 49.2357C114.716 48.8169 114.759 48.3572 114.67 47.914C114.58 47.4708 114.362 47.0638 114.043 46.744C111.934 44.6131 107.349 40.1085 105.219 37.9432C104.787 37.5257 104.209 37.2923 103.608 37.2924C103.006 37.2924 102.429 37.5258 101.996 37.9434L100.876 39.0634C98.9552 40.9689 95.0755 44.8356 93.1728 46.7439C92.8618 47.0679 92.652 47.4755 92.569 47.9169C92.4861 48.3583 92.5336 48.8143 92.7058 49.2291C92.878 49.6438 93.1674 49.9994 93.5385 50.2523C93.9097 50.5052 94.3465 50.6444 94.7955 50.6528H96.6928C95.5937 58.5436 91.6804 65.7714 85.6738 71.0052C79.6671 76.2389 71.9717 79.1261 64.0048 79.1348H2.28589C1.68016 79.1366 1.09975 79.378 0.671436 79.8063C0.243126 80.2347 0.00173674 80.8151 0 81.4208V90.2445C0.00176687 90.8502 0.24317 91.4306 0.671476 91.8589C1.09978 92.2872 1.68018 92.5286 2.28589 92.5303L64.0044 92.5301C75.5113 92.4833 86.5936 88.1789 95.1154 80.4465C103.637 72.7141 108.995 62.101 110.157 50.6528Z" />
</svg>