<svg viewBox="0 0 16 16" fill="none" xmlns="http://www.w3.org/2000/svg">
<g clip-path="url(#clip0_1027_207)">
<path d="M12.9488 3.0502L13.4488 3.05019C13.4488 2.77405 13.2249 2.5502 12.9488 2.5502L12.9488 3.0502ZM2.69575 12.5961C2.50052 12.7914 2.50049 13.108 2.69575 13.3032C2.89101 13.4985 3.20763 13.4985 3.40286 13.3032L2.69575 12.5961ZM12.4488 9.41416C12.4488 9.6903 12.6727 9.91416 12.9488 9.91415C13.2249 9.91416 13.4488 9.6903 13.4488 9.41416L12.4488 9.41416ZM6.58481 2.55017C6.30871 2.55021 6.08485 2.77406 6.08481 3.05016C6.08483 3.32634 6.3087 3.5502 6.58488 3.55023L6.58481 2.55017ZM12.5952 2.69664L2.69575 12.5961L3.40286 13.3032L13.3024 3.40375L12.5952 2.69664ZM12.4488 3.0502L12.4488 9.41416L13.4488 9.41416L13.4488 3.05019L12.4488 3.0502ZM12.9488 2.5502L6.58481 2.55017L6.58488 3.55023L12.9488 3.55019L12.9488 2.5502Z" fill="black"/>
</g>
</svg>
