<svg viewBox="0 0 96 96" fill="none" xmlns="http://www.w3.org/2000/svg">
<path fill-rule="evenodd" clip-rule="evenodd" d="M0.499973 20.742C0.499973 13.8201 6.13277 8.18701 13.055 8.18701H20.6331V4.56981C20.6331 2.31981 22.4612 0.499512 24.7034 0.499512C26.9456 0.499512 28.7815 2.32371 28.7815 4.56981V8.18701H43.9335V4.56981C43.9335 2.31981 45.7499 0.499512 48.0038 0.499512C50.2577 0.499512 52.0741 2.32371 52.0741 4.56981V8.18701H67.2261V4.56981C67.2261 2.31981 69.0425 0.499512 71.2964 0.499512C73.5503 0.499512 75.3667 2.32371 75.3667 4.56981V8.18701H82.9526C89.8745 8.18701 95.5076 13.8198 95.5076 20.742V82.945C95.5076 89.8669 89.8748 95.5 82.9526 95.5H13.0546C6.13267 95.5 0.499573 89.8672 0.499573 82.945L0.499973 20.742ZM52.07 19.949C52.07 22.199 50.2458 24.0193 47.9997 24.0193C45.7575 24.0193 43.9294 22.1951 43.9294 19.949V16.3318H28.7774V19.949C28.7774 22.199 26.9532 24.0193 24.6993 24.0193C22.4454 24.0193 20.629 22.1951 20.629 19.949V16.3318H13.0509C10.6251 16.3318 8.63287 18.3162 8.63287 20.742V31.054H87.3479V20.742C87.3479 18.3162 85.3674 16.3318 82.9417 16.3318H75.3558V19.949C75.3558 22.199 73.5394 24.0193 71.2855 24.0193C69.0316 24.0193 67.2152 22.1951 67.2152 19.949V16.3318H52.0632V19.949H52.07ZM57.2223 80.605C59.57 80.605 61.3668 78.7925 61.3668 76.5347C61.3668 74.2847 59.5387 72.4644 57.2965 72.4644C54.9488 72.4644 53.152 74.2769 53.152 76.5347C53.152 78.7925 54.9684 80.605 57.2223 80.605ZM75.7383 67.343C78.086 67.343 79.8828 65.5305 79.8828 63.2727C79.8828 61.0227 78.0664 59.2024 75.8125 59.2024C73.4648 59.2024 71.668 61.0149 71.668 63.2727C71.668 65.5344 73.4844 67.343 75.7383 67.343ZM57.2223 67.343C59.57 67.343 61.3668 65.5305 61.3668 63.2727C61.3668 61.0227 59.5387 59.2024 57.2965 59.2024C54.9488 59.2024 53.152 61.0149 53.152 63.2727C53.152 65.5344 54.9684 67.343 57.2223 67.343ZM75.7383 54.081C78.086 54.081 79.8828 52.2685 79.8828 50.0107C79.8828 47.7646 78.0664 45.9404 75.8125 45.9404C73.4648 45.9404 71.668 47.7529 71.668 50.0107C71.668 52.2724 73.4844 54.081 75.7383 54.081ZM57.2223 54.081C59.57 54.081 61.3668 52.2685 61.3668 50.0107C61.3668 47.7646 59.5387 45.9404 57.2965 45.9404C54.9488 45.9404 53.152 47.7529 53.152 50.0107C53.152 52.2724 54.9684 54.081 57.2223 54.081ZM38.7063 54.081C41.0461 54.081 42.8508 52.2685 42.8508 50.0107C42.8508 47.7646 41.0227 45.9404 38.7805 45.9404C36.4328 45.9404 34.636 47.7529 34.636 50.0107C34.636 52.2724 36.4524 54.081 38.7063 54.081ZM38.7063 80.601C41.0461 80.601 42.8508 78.7885 42.8508 76.5307C42.8508 74.2807 41.0227 72.4604 38.7805 72.4604C36.4328 72.4604 34.636 74.2729 34.636 76.5307C34.636 78.7885 36.4524 80.601 38.7063 80.601ZM38.7063 67.339C41.0461 67.339 42.8508 65.5265 42.8508 63.2687C42.8508 61.0187 41.0227 59.1984 38.7805 59.1984C36.4328 59.1984 34.636 61.0109 34.636 63.2687C34.636 65.5304 36.4524 67.339 38.7063 67.339ZM20.1903 80.601C22.5301 80.601 24.3348 78.7885 24.3348 76.5307C24.3348 74.2807 22.5067 72.4604 20.2567 72.4604C17.9169 72.4604 16.1122 74.2729 16.1122 76.5307C16.1122 78.7885 17.9403 80.601 20.1903 80.601ZM20.1903 67.339C22.5301 67.339 24.3348 65.5265 24.3348 63.2687C24.3348 61.0187 22.5067 59.1984 20.2567 59.1984C17.9169 59.1984 16.1122 61.0109 16.1122 63.2687C16.1122 65.5304 17.9403 67.339 20.1903 67.339ZM87.3583 39.191L8.63527 39.1989V82.9449C8.63527 85.3707 10.6275 87.3551 13.0533 87.3551H82.9483C85.3741 87.3551 87.3545 85.3707 87.3545 82.9449V39.1989L87.3583 39.191Z" fill="black"/>
</svg>
