<svg width="64" height="64" viewBox="0 0 64 64" fill="none" xmlns="http://www.w3.org/2000/svg">
<path fill-rule="evenodd" clip-rule="evenodd" d="M32 0C49.6725 0 64 14.3275 64 32C64 49.6725 49.6725 64 32 64C14.3275 64 0 49.6725 0 32C0 14.3275 14.3275 0 32 0ZM43.0386 20.7502L27.5719 38.6084L20.9608 30.9753C19.1275 28.8586 15.9108 31.642 17.7441 33.7586L25.9468 43.2306C26.7913 44.2195 28.3218 44.2446 29.1802 43.2501L46.2554 23.5331C48.0887 21.4164 44.8719 18.6336 43.0386 20.7502ZM51.611 12.389C40.7808 1.55876 23.2192 1.55876 12.3918 12.389C1.5616 23.2192 1.5616 40.778 12.3918 51.6082C23.222 62.4384 40.7836 62.4384 51.611 51.6082C62.4412 40.7801 62.4412 23.2192 51.611 12.389Z" fill="black"/>
</svg>
