<svg viewBox="0 0 380 92" fill="none" xmlns="http://www.w3.org/2000/svg">
  <path
    d="M16 16V74.3839H34.6447V51.9966H42.8784L68.6 74.3839H95.002L59.2776 44.5795L95.002 16H68.6L43.3547 37.4347H34.6447V16H16ZM101.466 16V54.038C101.466 68.5374 109.254 75.4727 126.371 75.4727H153.114C170.232 75.4727 178.019 68.5374 178.019 54.038V16H159.374V50.1594C159.374 57.571 156.6 60.5024 148.963 60.5024H130.522C122.885 60.5024 120.111 57.571 120.111 50.1594V16H101.466ZM194.282 16V74.3839H212.927V51.9966H221.16L246.882 74.3839H273.284L237.559 44.5795L273.284 16H246.882L221.637 37.4347H212.927V16H194.282ZM300.707 16L276.006 74.3839H296.828L301.183 64.0408H337.996L342.419 74.3839H363.173L338.54 16H300.707ZM315.337 30.4939H323.842L332.688 51.5203H306.491L315.337 30.4939Z"
    fill="currentColor" />
</svg>