<svg viewBox="0 0 38 38" fill="none" xmlns="http://www.w3.org/2000/svg">
<g clip-path="url(#clip0_1757_7578)">
<mask id="mask0_1757_7578" style="mask-type:luminance" maskUnits="userSpaceOnUse" x="0" y="0" width="38" height="38">
<path d="M38 0H0V38H38V0Z" fill="white"/>
</mask>
<g mask="url(#mask0_1757_7578)">
<path d="M35.45 9.5C33.78 6.61 31.38 4.21 28.5 2.55C25.61 0.88 22.34 0 19 0C15.66 0 12.39 0.88 9.5 2.55C6.61 4.22 4.21 6.62 2.55 9.5C0.88 12.39 0 15.66 0 19C0 22.34 0.88 25.61 2.55 28.5C4.22 31.39 6.62 33.79 9.5 35.45C12.39 37.12 15.66 38 19 38C22.34 38 25.61 37.12 28.5 35.45C31.39 33.78 33.79 31.38 35.45 28.5C37.12 25.61 38 22.34 38 19C38 15.66 37.12 12.39 35.45 9.5ZM1.9 19C1.9 16 2.69 13.05 4.19 10.45C5.69 7.85 7.85 5.69 10.45 4.19C12.89 2.78 15.65 2 18.46 1.91L16.28 17.43L3.93 27.08C2.6 24.6 1.9 21.82 1.9 19ZM27.55 33.81C24.95 35.31 22 36.1 19 36.1C16 36.1 13.05 35.31 10.45 33.81C8.01 32.4 5.95 30.4 4.47 28.01L19 22.14L33.53 28.01C32.05 30.4 29.99 32.4 27.55 33.81ZM34.07 27.08L21.72 17.43L19.54 1.91C22.36 2 25.11 2.78 27.55 4.19C30.15 5.69 32.31 7.85 33.81 10.45C35.31 13.05 36.1 16 36.1 19C36.1 21.82 35.4 24.6 34.07 27.08Z" fill="currentColor"/>
</g>
</g>
<defs>
<clipPath id="clip0_1757_7578">
<rect width="38" height="38" fill="white"/>
</clipPath>
</defs>
</svg>
