<svg viewBox="0 0 64 64" fill="none" xmlns="http://www.w3.org/2000/svg">
<path d="M8.42959 17.9699C10.0542 15.8948 11.9446 14.0364 14.0591 12.461L12.5379 10.9397C10.9994 9.40127 8.5059 9.40127 6.96744 10.9397C5.42898 12.4782 5.42898 14.9717 6.96744 16.5101L8.42713 17.9698L8.42959 17.9699Z" fill="black"/>
<path d="M54.9424 17.97L56.4021 16.5103C57.9406 14.9718 57.9406 12.4783 56.4021 10.9398C54.8637 9.40141 52.3702 9.40141 50.8318 10.9398L49.3104 12.4611C51.425 14.039 53.3154 15.895 54.94 17.9701L54.9424 17.97Z" fill="black"/>
<path d="M35.6245 8.86484V4.64086H37.5937C38.6817 4.64086 39.5629 3.75964 39.5629 2.67162C39.5629 1.58359 38.6817 0.702393 37.5937 0.702393H25.7783C24.6903 0.702393 23.8091 1.58359 23.8091 2.67162C23.8091 3.75964 24.6903 4.64086 25.7783 4.64086H27.7475V8.86484C14.406 10.7824 4.11682 22.2852 4.11682 36.1486C4.11682 51.351 16.4835 63.7178 31.686 63.7178C46.8885 63.7178 59.2552 51.351 59.2552 36.1486C59.2552 22.2852 48.9661 10.7824 35.6245 8.86484ZM31.686 59.7793C18.6544 59.7793 8.05528 49.1776 8.05528 36.1486C8.05528 23.1195 18.6544 12.5178 31.686 12.5178C44.7176 12.5178 55.3168 23.1195 55.3168 36.1486C55.3168 49.1776 44.715 59.7793 31.686 59.7793Z" fill="black"/>
<path d="M31.686 16.4563V55.8409C42.5612 55.8409 51.3783 47.0238 51.3783 36.1486C51.3783 25.2734 42.5612 16.4563 31.686 16.4563Z" fill="black"/>
</svg>
