<svg width="125" height="128" viewBox="0 0 125 128" xmlns="http://www.w3.org/2000/svg">
  <path
    d="M39.4817 12.5596C39.4817 19.1741 29.5625 19.1741 29.5625 12.5596C29.5625 5.95011 39.4817 5.95011 39.4817 12.5596Z" />
  <path
    d="M110.4 60.0452C103.806 60.0452 98.2365 64.5898 96.7172 70.7393L92.4775 70.0444C92.8675 68.0795 93.0875 66.0547 93.0875 64.0048C93.0875 53.7258 88.0479 44.6119 80.2886 38.9868L87.5729 29.7876C89.0978 30.5625 90.8427 31.0325 92.6725 31.0325C98.822 31.0325 103.812 26.0479 103.812 19.8935C103.812 13.744 98.827 8.75444 92.6725 8.75444C86.523 8.75444 81.5335 13.739 81.5335 19.8935C81.5335 22.9982 82.8084 25.8229 84.8833 27.8427L77.4889 37.177C72.9993 34.6272 67.7948 33.1623 62.28 33.1623C56.7652 33.1623 51.6159 34.6022 47.1261 37.152L43.3315 30.6676C43.9414 30.2776 44.5514 29.8626 45.1063 29.3927C48.931 26.2329 51.1458 21.5534 51.1458 16.5938C51.1458 7.4496 43.6915 0 34.5521 0C25.4079 0.00999915 17.9288 7.46432 17.9288 16.604C17.9288 21.5636 20.1186 26.2431 23.9684 29.4029C26.9331 31.8427 30.6728 33.1976 34.5225 33.1976C36.5173 33.1976 38.4571 32.8376 40.312 32.1426L44.3016 38.957C37.4872 43.8616 32.7477 51.4509 31.6677 60.1507L16.5995 57.6859C16.5995 53.5863 13.2498 50.2615 9.1452 50.2615C5.04558 50.2615 1.69086 53.6113 1.69086 57.7159C1.69086 61.8155 5.04059 65.1702 9.1452 65.1702C12.1099 65.1702 14.6597 63.4503 15.8746 60.9306L31.4432 63.4804V64.0053C31.4432 71.8447 34.4079 79.2988 39.6725 84.9789L33.688 92.5433C30.1133 89.3835 25.4037 87.4437 20.2786 87.4437C9.08454 87.4437 0 96.528 0 107.722C0 113.792 2.68483 119.496 7.36935 123.375C10.999 126.365 15.5686 128 20.2783 128C24.9879 128 29.5575 126.365 33.1873 123.375C37.8668 119.496 40.5567 113.791 40.5567 107.722C40.5567 102.873 38.8368 98.4431 36.012 94.9534L42.0815 87.309C42.2765 87.4739 42.4715 87.6389 42.6615 87.8089C48.176 92.3535 55.1304 94.8433 62.2745 94.8433C66.8192 94.8433 71.2788 93.8184 75.3486 91.9336L79.3933 98.833C76.4286 101.158 74.5187 104.762 74.5187 108.832C74.5187 115.842 80.2232 121.521 87.2077 121.521C94.1871 121.521 99.8967 115.817 99.8967 108.832C99.8967 101.853 94.1922 96.1432 87.2077 96.1432C85.4329 96.1432 83.773 96.5031 82.2481 97.1681L78.2884 90.3786C79.5633 89.6037 80.7532 88.7438 81.918 87.8039C86.5726 83.9542 89.9523 78.9097 91.6972 73.2848L96.3517 74.0347V74.1747C96.3517 78.4144 98.2366 82.374 101.476 85.0638C103.996 87.1436 107.181 88.2785 110.451 88.2785C113.72 88.2785 116.905 87.1436 119.425 85.0638C122.694 82.379 124.549 78.3894 124.549 74.1747C124.549 66.3904 118.205 60.046 110.421 60.046L110.4 60.0452ZM31.947 119.995C30.5871 114.786 25.8526 110.936 20.2281 110.936C14.6036 110.936 9.8689 114.786 8.50915 119.995C5.15942 116.811 3.27465 112.406 3.27465 107.721C3.27465 98.3572 10.894 90.7679 20.2281 90.7679C24.5777 90.7679 28.5673 92.4278 31.5871 95.1426C32.0021 95.5026 32.3921 95.9175 32.777 96.3325C33.167 96.7475 33.527 97.1924 33.8569 97.6324C35.9617 100.457 37.2067 103.947 37.2067 107.716C37.2067 112.371 35.3218 116.776 31.9722 119.99L31.947 119.995ZM118.075 81.7931C116.995 78.6083 113.975 76.3336 110.43 76.3336C106.886 76.3336 103.866 78.6033 102.786 81.7931C100.791 79.7683 99.6562 77.0535 99.6562 74.1738C99.6562 68.2193 104.506 63.3697 110.46 63.3697C116.415 63.3697 121.264 68.2193 121.264 74.1738C121.264 77.0535 120.129 79.7683 118.135 81.7631L118.075 81.7931ZM79.7625 85.2578C78.7676 86.0877 77.6826 86.8376 76.5777 87.5275C76.1077 87.8025 75.6378 88.0825 75.1378 88.3574C74.6379 88.6074 74.1429 88.8574 73.6429 89.0774C70.0983 90.6822 66.1886 91.5422 62.2589 91.5422C55.8894 91.5422 49.6549 89.2974 44.75 85.2527C44.555 85.0877 44.3601 84.9227 44.1701 84.7527C44.1701 84.6977 44.2001 84.6127 44.2251 84.5578C45.64 80.2082 48.5746 76.5534 52.4243 74.2237C55.304 72.4788 58.6588 71.4789 62.2585 71.4789C62.6184 71.4789 62.9784 71.4789 63.3384 71.5089C64.0333 71.5389 64.7232 71.6189 65.4182 71.7289C66.1681 71.8389 66.9131 72.0339 67.633 72.2289C73.6726 74.0037 78.4671 78.7383 80.347 84.7529C80.152 84.9178 79.957 85.0828 79.767 85.2528L79.7625 85.2578ZM87.1868 99.4709C92.3664 99.4709 96.551 103.681 96.551 108.835C96.551 113.99 92.3414 118.199 87.1868 118.199C82.0323 118.199 77.8227 113.99 77.8227 108.835C77.8227 106.01 79.0675 103.461 81.0623 101.741C81.4773 101.381 81.9472 101.046 82.4222 100.771C82.8922 100.496 83.3921 100.246 83.9171 100.051C84.942 99.6609 86.052 99.4709 87.1868 99.4709ZM9.11863 61.8447C6.84887 61.8447 4.98894 59.9899 4.98894 57.715C4.98894 55.4453 6.84375 53.5853 9.11863 53.5853C11.3884 53.5853 13.2483 55.4401 13.2483 57.715C13.2483 59.9848 11.3935 61.8447 9.11863 61.8447ZM34.5219 3.3345C41.8362 3.3345 47.7905 9.28893 47.7905 16.6031C47.7905 20.1779 46.3507 23.5825 43.8308 26.0773C42.6409 22.0876 38.9263 19.1779 34.5516 19.1779C30.1769 19.1779 26.4623 22.0876 25.2724 26.0773C22.7226 23.5825 21.2827 20.2028 21.2827 16.6031C21.2827 9.28881 27.2372 3.3345 34.5513 3.3345H34.5219ZM52.251 57.6595C52.251 56.2996 52.5259 55.0297 53.0009 53.8348C53.2509 53.2248 53.5558 52.6449 53.9158 52.1148C54.2458 51.6149 54.6107 51.1449 55.0257 50.73C56.8556 48.8451 59.4004 47.6553 62.2301 47.6553C64.28 47.6553 66.2198 48.2903 67.7997 49.3452C68.2696 49.6501 68.6846 50.0101 69.0995 50.4001C69.5145 50.79 69.8745 51.205 70.2344 51.675C71.4793 53.3349 72.2293 55.4147 72.2293 57.6595C72.2293 61.1492 70.4295 64.2239 67.7147 66.0238C66.8848 66.5488 65.9948 66.9937 65.0299 67.2687L64.6999 67.2137L64.7849 67.3237C64.23 67.4637 63.62 67.5737 63.04 67.6287C62.7901 67.6287 62.5401 67.6587 62.2651 67.6587C61.8751 67.6587 61.4602 67.6587 61.0752 67.5737C60.0803 67.4637 59.1354 67.1837 58.2505 66.7988C57.7255 66.5788 57.2256 66.2988 56.7556 65.9938L56.5606 65.8538C56.1706 65.5789 55.7856 65.2739 55.4507 64.9689C55.0607 64.6089 54.7307 64.249 54.3958 63.834C53.0658 62.1442 52.2609 59.9843 52.2609 57.6545L52.251 57.6595ZM83.5827 74.0574C83.8876 73.4225 84.1626 72.7576 84.3876 72.0925C84.5826 71.5676 84.7476 71.0376 84.9126 70.4877C85.0526 69.9627 85.1875 69.4078 85.3025 68.8828C85.6325 67.278 85.8025 65.6681 85.8025 64.0082C85.8025 61.2384 85.3325 58.4937 84.3626 55.9189C84.1126 55.284 84.4726 54.5591 85.1126 54.3141C85.7475 54.0641 86.4724 54.3991 86.7174 55.064C87.7723 57.9438 88.2973 60.9385 88.2973 64.0133C88.2973 65.8131 88.1323 67.5579 87.7723 69.3028C87.6624 69.8578 87.5224 70.3827 87.3824 70.9077C87.2424 71.4626 87.0774 71.9876 86.8824 72.5125C86.5775 73.3974 86.2175 74.2574 85.8275 75.1174C85.6075 75.5623 85.1626 75.8373 84.6926 75.8373C84.5276 75.8373 84.3326 75.8073 84.1677 75.7273C83.5577 75.4223 83.2827 74.7024 83.5877 74.0674L83.5827 74.0574ZM92.6419 12.0582C96.9615 12.0582 100.456 15.5779 100.456 19.8726C100.456 24.1673 96.9365 27.687 92.6419 27.687C91.587 27.687 90.592 27.467 89.6522 27.107C89.1272 26.887 88.6273 26.6071 88.1823 26.3021C87.7374 25.9971 87.2974 25.6072 86.9375 25.2222C85.6376 23.8374 84.8327 21.9525 84.8327 19.9027C84.8327 15.5831 88.3524 12.0883 92.647 12.0883L92.6419 12.0582Z" />
  <path
    d="M110.401 66.6904C108.131 66.6904 106.271 68.5452 106.271 70.8201C106.271 73.0899 108.126 74.9498 110.401 74.9498C112.67 74.9498 114.53 73.095 114.53 70.8201C114.53 68.5504 112.676 66.6904 110.401 66.6904Z" />
  <path
    d="M20.2283 96.5029C16.8185 96.5029 14.0488 99.2727 14.0488 102.682C14.0488 106.092 16.8186 108.862 20.2283 108.862C23.638 108.862 26.4077 106.092 26.4077 102.682C26.4077 99.2727 23.6379 96.5029 20.2283 96.5029Z" />
</svg>