<svg width="128" height="123" viewBox="0 0 128 123" xmlns="http://www.w3.org/2000/svg">
  <path
    d="M49.2042 10.9955L26.6138 2.9989C27.2136 4.59822 27.6134 6.59737 27.8133 8.99635C28.4131 20.7913 21.4161 38.5837 12.22 43.9814L35.0103 51.978C42.4071 45.5808 51.0034 21.7909 49.2042 10.9955Z" />
  <path
    d="M39.0088 53.7772L42.0075 54.7768C43.207 48.3795 48.8046 43.5816 55.4018 43.5816C62.9986 43.5816 69.1959 49.7789 69.1959 57.1758C69.1959 59.3749 68.5962 61.5739 67.5966 63.5731H67.9964C76.5928 65.3723 86.5885 44.5812 86.1887 31.3868C85.9888 26.5888 84.3895 23.1903 81.5906 22.3906L53.4027 12.5948C54.2023 24.1898 46.6056 45.5807 39.0088 53.7772Z" />
  <path
    d="M125.572 49.579H125.372L109.778 44.1813V43.7815C109.578 38.9835 107.579 37.3842 106.38 36.7845C106.38 36.7845 106.18 36.7845 106.18 36.5846L90.1868 30.9869C90.1868 31.1869 90.1868 31.1869 90.1868 31.3868C90.5866 41.5824 85.5887 54.7768 79.3914 62.1736L95.3845 67.7713C97.9834 68.5709 100.982 66.1719 102.781 64.1728L118.375 69.5705C124.372 71.9695 131.969 52.7777 125.572 49.579Z" />
  <path
    d="M21.0163 24.3898C24.6147 14.1941 25.0146 2.59909 19.0171 0.599939C18.4174 0.400024 17.8176 0.400024 17.2179 0.400024C11.4204 0.400024 5.42293 9.59611 2.62412 17.9925C0.824885 23.1903 -0.174689 28.3881 0.0252257 32.5863C0.225141 37.3843 1.82446 40.7828 4.62327 41.7824C5.22301 41.9823 5.82276 41.9823 6.4225 41.9823C12.22 41.9823 18.0176 32.7862 21.0163 24.3898ZM6.02267 37.984C5.22301 37.7841 4.22344 36.1848 4.02352 32.5863C3.82361 28.7879 4.62327 24.1899 6.4225 19.3919C9.82105 9.59611 15.0188 4.39832 17.4178 4.39832C17.6177 4.39832 17.6177 4.39832 17.8176 4.39832C20.0167 5.19798 20.8164 12.9947 17.4178 23.1903C13.6194 33.386 8.02182 38.7837 6.02267 37.984Z" />
  <path
    d="M27.2135 120.149C26.8137 121.149 27.2135 122.348 28.2131 122.748C29.2127 123.148 30.4122 122.748 30.812 121.748L52.003 70.5701C50.6036 70.1703 49.4041 69.7704 48.4045 68.9708L27.2135 120.149Z" />
  <path
    d="M53.4026 70.9699V112.752C53.4026 113.752 54.4022 114.751 55.4017 114.751C56.6012 114.751 57.4009 113.752 57.4009 112.752V70.9699C56.4013 71.1698 54.802 71.1698 53.4026 70.9699Z" />
  <path
    d="M62.5987 68.9708C61.3992 69.7704 60.1997 70.1703 59.0002 70.5701L79.9913 121.548C80.3911 122.548 81.5906 123.148 82.5902 122.548C83.5898 122.148 84.1895 120.949 83.5898 119.949L62.5987 68.9708Z" />
  <path
    d="M55.4013 47.5799C50.0036 47.5799 45.6055 51.978 45.6055 57.1758C45.6055 62.5735 50.0036 66.9716 55.4013 66.9716C60.799 66.9716 65.1971 62.5735 65.1971 57.1758C65.1971 51.978 60.799 47.5799 55.4013 47.5799Z" />
</svg>