<svg viewBox="0 0 228 114" fill="none" xmlns="http://www.w3.org/2000/svg">
  <path
    d="M227.516 0V113.386H0V0H227.516ZM144.078 69.9424C135.402 69.9424 128.604 76.5557 128.604 85.001C128.605 93.4448 135.402 100.06 144.078 100.06C152.754 100.06 159.55 93.4448 159.55 85.001C159.55 76.5557 152.754 69.9424 144.078 69.9424ZM40.6953 70.7998V87.8633C40.6953 95.3979 46.7711 100.034 53.9521 100.034C61.5467 100.034 67.208 94.9555 67.208 87.8633V70.7998H60.3232V86.7822C60.3232 90.8395 57.5411 93.4764 53.9521 93.4766C50.3029 93.4766 47.582 90.9871 47.582 86.7822V70.7998H40.6953ZM188.915 70.7764V99.2227H198.921C206.738 99.2224 213.342 92.7069 213.342 84.999C213.342 77.2899 206.738 70.7766 198.921 70.7764H188.915ZM14.1719 70.7998V76.998H22.4521V99.1992H29.3369V76.998H37.6172V70.7998H14.1719ZM79.6318 99.1992H87.457L98.0049 70.7998H90.3457L83.5439 90.4512L76.7432 70.7998H69.084L79.6318 99.1992ZM100.884 70.7998V99.1992H105.63V79.2588L121.048 99.1992H125.108V70.7998H120.361V90.7412L104.863 70.7998H100.884ZM163.007 70.7998V99.1992H167.754V88.4004H173.919L179.944 99.1992H185.14L178.67 87.9141C179.645 87.4963 184.217 85.2284 184.217 79.5996C184.217 74.5826 180.261 70.7998 175.021 70.7998H163.007ZM144.078 74.292C150.084 74.292 154.787 78.9954 154.787 85.001C154.787 91.0038 150.084 95.71 144.078 95.71C138.074 95.7099 133.369 91.0037 133.369 85.001C133.369 78.9954 138.074 74.292 144.078 74.292ZM198.921 75.125C204.253 75.1252 208.595 79.5535 208.595 84.999C208.595 90.4448 204.253 94.8748 198.921 94.875H193.662V75.125H198.921ZM175.021 75.1455C177.56 75.1455 179.474 77.0605 179.475 79.5996C179.475 82.1389 177.56 84.0547 175.021 84.0547H167.754V75.1455H175.021ZM50.5137 77.6846H57.3975V70.7998H50.5137V77.6846Z"
    fill="currentColor" />
</svg>