<svg xmlns="http://www.w3.org/2000/svg" viewBox="0 0 48 48"><defs><style>.cls-1{fill:#fff;opacity:0;}.cls-2{fill:#000;}</style></defs><title>cv_hover</title><g id="Layer_2" data-name="Layer 2"><g id="cv_hover"><rect id="dont_crop" data-name="dont crop" class="cls-1" width="48" height="48"/><path class="cls-2" d="M40,2a2,2,0,0,1,2,2V44a2,2,0,0,1-2,2H8a2,2,0,0,1-2-2V4A2,2,0,0,1,8,2H40m0-2H8A4,4,0,0,0,4,4V44a4,4,0,0,0,4,4H40a4,4,0,0,0,4-4V4a4,4,0,0,0-4-4Z"/><circle class="cls-2" cx="15" cy="7" r="3"/><path class="cls-2" d="M15,10.5a7,7,0,0,0-7,7H22A7,7,0,0,0,15,10.5Z"/><rect class="cls-2" x="24.5" y="8" width="15" height="2"/><rect class="cls-2" x="24.5" y="15.63" width="15" height="2"/><rect class="cls-2" x="7.5" y="23.25" width="32" height="2"/><rect class="cls-2" x="7.5" y="30.88" width="32" height="2"/><rect class="cls-2" x="7.5" y="38.5" width="32" height="2"/></g></g></svg>
