<svg viewBox="0 0 32 32" fill="none" xmlns="http://www.w3.org/2000/svg">
<path d="M26.6665 1.33333C27.0201 1.33333 27.3593 1.47381 27.6093 1.72386C27.8594 1.97391 27.9998 2.31304 27.9998 2.66667V29.3333C27.9998 29.687 27.8594 30.0261 27.6093 30.2761C27.3593 30.5262 27.0201 30.6667 26.6665 30.6667H5.33317C4.97955 30.6667 4.64041 30.5262 4.39036 30.2761C4.14031 30.0261 3.99984 29.687 3.99984 29.3333V2.66667C3.99984 2.31304 4.14031 1.97391 4.39036 1.72386C4.64041 1.47381 4.97955 1.33333 5.33317 1.33333H26.6665ZM26.6665 0H5.33317C4.62593 0 3.94765 0.280952 3.44755 0.781049C2.94746 1.28115 2.6665 1.95942 2.6665 2.66667V29.3333C2.6665 30.0406 2.94746 30.7189 3.44755 31.219C3.94765 31.719 4.62593 32 5.33317 32H26.6665C27.3737 32 28.052 31.719 28.5521 31.219C29.0522 30.7189 29.3332 30.0406 29.3332 29.3333V2.66667C29.3332 1.95942 29.0522 1.28115 28.5521 0.781049C28.052 0.280952 27.3737 0 26.6665 0V0Z" fill="black"/>
<path d="M15.6665 6.66675C16.7711 6.66675 17.6665 5.77132 17.6665 4.66675C17.6665 3.56218 16.7711 2.66675 15.6665 2.66675C14.5619 2.66675 13.6665 3.56218 13.6665 4.66675C13.6665 5.77132 14.5619 6.66675 15.6665 6.66675Z" fill="black"/>
<path d="M15.6667 7C14.429 7 13.242 7.49167 12.3668 8.36684C11.4917 9.24201 11 10.429 11 11.6667H20.3333C20.3333 10.429 19.8417 9.24201 18.9665 8.36684C18.0913 7.49167 16.9043 7 15.6667 7Z" fill="black"/>
<path d="M26.3333 15.5H5V16.8333H26.3333V15.5Z" fill="black"/>
<path d="M26.3333 20.5867H5V21.92H26.3333V20.5867Z" fill="black"/>
<path d="M26.3333 25.6667H5V27.0001H26.3333V25.6667Z" fill="black"/>
</svg>
