<svg viewBox="0 0 104 104" xmlns="http://www.w3.org/2000/svg">
<path d="M52 0C23.28 0 0 23.28 0 52C0 80.72 23.28 104 52 104L51.95 97.95H52C77.38 97.95 97.95 77.38 97.95 52H104C104 23.28 80.72 0 52 0ZM52 91.89C29.97 91.89 12.11 74.03 12.11 52C12.11 29.97 29.97 12.1 52 12.1C74.03 12.1 91.89 29.96 91.89 51.99C91.89 74.02 74.03 91.88 52 91.88V91.89Z" />
<path d="M62.0102 19.63C48.6202 15.27 35.7902 20.46 28.4602 27.41C28.6502 36.4 30.0902 43.42 32.4002 49.38C35.5702 34.3 47.7902 21.9 62.0102 19.64"/>
<path d="M20.3901 39.31C12.1701 60.95 26.1301 78.93 40.6501 83.96C35.9901 78.28 32.6201 70.25 31.7601 62.3C25.5601 56.1 21.3101 48.22 20.3801 39.31"/>
<path d="M36.4702 65.69C37.6202 72.78 39.6102 79.76 43.8502 84.92C58.6902 88.75 71.8002 81.53 78.2702 73.47C64.6202 79.81 49.4002 76.17 36.4802 65.69"/>
<path d="M79.4102 71.97C94.9102 50.09 80.1602 27.72 67.0002 21.64C51.3602 24.13 37.2702 38.65 35.6602 55.92C47.8702 76.79 72.5102 74.22 79.4202 71.97"/>
</svg>
