<svg viewBox="0 0 305 306" xmlns="http://www.w3.org/2000/svg">
<path fill-rule="evenodd" clip-rule="evenodd" d="M41 3.4C43.5 2.6 47.7 1.49999 50.5 1.09999C53.2 0.599992 100.5 0.299994 255.5 0.499994L263.5 3.19999C267.9 4.69999 274.2 7.69999 277.5 9.79999C280.8 12 285.2 15.5 287.4 17.6C289.5 19.7 292.5 23.3 294 25.5C295.5 27.7 297.6 31.3 298.8 33.5C299.9 35.7 301.6 39.5 302.6 42C304.3 46.2 304.5 52.7 304.8 150C305 224.8 304.8 255 304 259C303.4 262 301 268.3 298.7 273C295.7 278.9 292.6 283.4 288 288C284.4 291.7 279 296.1 276 297.8C273 299.5 267.6 301.9 257.5 305.5H48.5L41 303C36.9 301.7 30.3 298.5 26.5 295.9C22.7 293.4 17.1 288.4 14.2 284.9C11.2 281.4 7.5 275.8 5.9 272.5C4.3 269.2 2.3 264 1.5 261C0.2 256.3 0 240 0 153.2C0 62.2 0.199998 50.4 1.6 45.2C2.5 42.1 4.8 36.3 6.8 32.5C9.1 28 12.9 23 17.5 18.4C21.3 14.5 27.2 9.89999 30.5 8.09999C33.8 6.39999 38.5 4.2 41 3.4ZM120.7 44.4C125.6 43 132 41.5 135 41.1C138 40.6 145.7 40.2 152 40.1C158.6 40.1 167.3 40.7 172.5 41.6C177.4 42.5 185.3 44.5 190 46.2C194.7 47.8 201.9 51 206 53.2C210.1 55.5 214.9 58.3 216.5 59.4C218.1 60.5 222.2 63.7 225.5 66.5C228.8 69.2 233.5 73.7 236 76.4C238.5 79.1 241.6 82.7 242.8 84.4C244.1 86.1 246.6 89.8 248.4 92.5C250.2 95.3 252.8 99.8 254.2 102.5C255.7 105.3 258.2 111.6 259.9 116.5C261.6 121.4 263.7 129.3 264.5 134C265.3 138.7 266 147.4 266 153.5C266 159.6 265.4 168.1 264.6 172.5C263.8 176.9 262.2 183.7 261 187.5C259.8 191.4 256.8 198.6 254.3 203.5C251.8 208.4 247.3 216 244.2 220.3C241 224.6 235.6 231 232 234.4C228.4 237.9 221.9 243.2 217.5 246.2C213.1 249.3 206.8 253.1 203.5 254.7C200.2 256.4 194.6 258.7 191 260C187.4 261.2 182.9 262.6 181 263.1C179.1 263.6 173.9 264.7 169.5 265.5C165.1 266.3 158.2 267 154.3 267C150.3 267 143.5 266.5 139.3 265.9C135 265.4 127.2 263.7 122 262.3C116.8 260.9 111 259 106 256.5V187L77.3001 186.9C61.4001 186.8 47.4001 186.5 46.0001 186.1C43.8001 185.5 43.3001 184.4 41.8001 177.5C40.8001 173.1 39.7001 164.6 39.4001 158.5C38.9001 150.5 39.2001 144.6 40.4001 137C41.3001 131.2 43.3001 122.7 44.9001 118C46.4001 113.3 49.3001 106.4 51.2001 102.5C53.2001 98.7 56.9001 92.4 59.5001 88.5C62.1001 84.7 67.9001 77.9 72.4001 73.5C76.8001 69.1 82.3001 64.1 84.5001 62.4C86.7001 60.8 90.8001 58 93.5001 56.3C96.3001 54.5 101.5 51.7 105.3 50.1C109 48.4 115.9 45.9 120.7 44.4Z" />
<path d="M142 70.6C140.6 70.8 137 71.5 134 72.2C131 72.8 126.5 74.2 124 75.2C121.5 76.3 117.5 78.1 115 79.2C112.5 80.3 107.3 83.6 103.5 86.5C99.7 89.4 94.7 93.7 92.4 96.1C90.2 98.5 86.7 102.8 84.7 105.5C82.8 108.3 79.5 114.1 77.4 118.5C75.4 122.9 72.9 129.9 71.9 134C70.8 138.1 70 144.8 70 148.8V156H106C106 147.9 106.4 143 107 140C107.6 137 109.6 131.2 111.5 127.3C113.5 123.2 117.3 117.6 120.3 114.4C123.1 111.4 127.5 107.5 130 106C132.5 104.4 137.2 102.1 140.5 100.9C145.8 99 148.9 98.7 168.3 98.4L190 98V129C150.5 129.5 148.9 129.6 146.3 131.6C144.8 132.8 142.2 135.4 140.5 137.5C137.9 140.8 137.5 142.1 137.3 148.6L137 156H190V187L137 186.5V235C140.5 235.8 146.4 236 152.5 236C160.8 236 165.8 235.4 173 233.7C178.6 232.3 185.9 229.5 190.9 226.9C195.4 224.5 202 220.3 205.3 217.5C208.7 214.8 213.8 209.6 216.8 206C219.7 202.4 224.3 195 227 189.5C229.7 184 232.6 176.8 233.5 173.5C234.4 170.2 235.3 163.4 235.7 158.5C236 153.5 235.7 146.3 235.1 142.3C234.5 138.3 232.9 131.5 231.5 127.3C230.2 123 227 115.9 224.4 111.5C221.3 106.1 216.7 100.5 210.6 94.5C204.1 88.1 199.1 84.2 193 80.8C188.3 78.2 180.4 74.9 175.5 73.5C169 71.6 163.5 70.8 155.5 70.5C149.4 70.3 143.4 70.3 142 70.6Z"/>
</svg>
