<svg xmlns="http://www.w3.org/2000/svg" viewBox="0 0 48 48"><defs><style>.cls-1{fill:#fff;opacity:0;}.cls-2,.cls-3{fill:#000;}.cls-2{fill-rule:evenodd;}</style></defs><title>github_hover</title><g id="Layer_2" data-name="Layer 2"><g id="github_hover"><rect id="dont_crop" data-name="dont crop" class="cls-1" width="48" height="48"/><path class="cls-2" d="M24,.59a24,24,0,0,0-7.59,46.78c1.2.22,1.64-.52,1.64-1.16s0-2.46,0-4.47c-6.68,1.46-8.09-2.83-8.09-2.83C8.84,36.14,7.27,35.4,7.27,35.4c-2.18-1.49.16-1.46.16-1.46a5,5,0,0,1,3.68,2.47c2.14,3.67,5.62,2.61,7,2a5.07,5.07,0,0,1,1.52-3.21c-5.33-.61-10.93-2.66-10.93-11.86a9.26,9.26,0,0,1,2.47-6.44,8.63,8.63,0,0,1,.23-6.35s2-.65,6.6,2.46a22.7,22.7,0,0,1,12,0c4.58-3.11,6.6-2.46,6.6-2.46a8.63,8.63,0,0,1,.23,6.35,9.26,9.26,0,0,1,2.47,6.44c0,9.22-5.61,11.25-11,11.84A5.76,5.76,0,0,1,30,39.63c0,3.21,0,5.79,0,6.58s.43,1.39,1.65,1.15A24,24,0,0,0,24,.59Z"/><path class="cls-3" d="M9.09,35.05c-.05.12-.24.16-.41.07a.3.3,0,0,1-.22-.36c0-.12.24-.15.42-.07s.27.24.21.36Z"/><path class="cls-3" d="M10.06,36.14c-.11.1-.34,0-.49-.12a.36.36,0,0,1-.07-.49.36.36,0,0,1,.49.11c.16.17.19.39.07.5Z"/><path class="cls-3" d="M11,37.52c-.15.1-.39,0-.54-.21s-.14-.47,0-.57.38,0,.53.2.15.47,0,.58Z"/><path class="cls-3" d="M12.3,38.85c-.13.15-.41.11-.61-.09s-.27-.47-.14-.61a.45.45,0,0,1,.62.09c.21.19.27.47.13.61Z"/><path class="cls-3" d="M14.09,39.63c-.05.19-.32.27-.6.19s-.45-.3-.39-.49a.46.46,0,0,1,.6-.19c.27.08.45.3.39.49Z"/><path class="cls-3" d="M16.06,39.77c0,.2-.23.36-.51.37S15,40,15,39.79s.22-.36.51-.37.52.16.52.35Z"/><path class="cls-3" d="M17.89,39.46c0,.19-.17.39-.45.45s-.54-.07-.57-.26.16-.4.44-.45.54.06.58.26Z"/></g></g></svg>
