<svg viewBox="0 0 757 735" fill="none" xmlns="http://www.w3.org/2000/svg">
<g clip-path="url(#clip0_1443_364)">
<path d="M489.69 0C551.187 5.37532e-06 608.695 19.8174 649.527 60.0615C667.392 77.6687 684.598 95.9311 702.462 113.538C745.566 156.021 762.865 216.551 755.262 275.907L720.258 535.314H681.108C701.943 555.658 714.945 584.014 714.945 615.971C714.945 680.705 664.328 734.895 596.371 734.896C564.633 734.896 536.313 722.33 515.884 701.887L515.859 701.912C496.582 681.72 475.745 662.389 457.645 641.146C448.21 654.808 437.226 667.38 424.682 678.635C383.027 716.008 328.428 735 267.422 735C205.925 735 148.417 715.183 107.585 674.938L42.4443 608.201C9.23636 568.361 -5.45675 516.154 1.8252 459.285L36.8555 199.686H70.5918C50.4279 179.028 38.1367 150.644 38.1367 119.103C38.137 53.8215 88.5546 0 157.009 0C192.601 3.13624e-05 224.806 15.8914 246.083 41.3379L299.118 94.3643C308.631 80.5047 319.73 67.7594 332.431 56.3643C374.086 18.9916 428.685 4.8812e-05 489.69 0ZM548.42 500.721C510.283 500.721 482.739 529.833 482.739 566.755C482.739 601.548 509.577 628.53 544.183 628.53C582.319 628.53 610.568 598.708 610.568 561.785C610.568 527.703 583.026 500.721 548.42 500.721ZM489.316 57.335C391.599 57.3351 327.87 117.415 315.124 210.716L281.384 466.567C275.719 508.269 255.891 531.594 219.07 531.594C181.542 531.594 161.007 506.149 166.672 463.739L194.239 257.021H86.6084L58.332 466.567C46.2947 560.574 114.981 624.187 214.114 624.188C311.831 624.188 375.561 564.108 388.307 470.808L422.047 214.957C427.712 173.255 447.539 149.929 484.359 149.929C521.888 149.929 542.424 175.375 536.759 217.784L509.19 424.502H616.821L645.098 214.957C657.136 120.95 588.449 57.335 489.316 57.335ZM157.009 53.1826C118.872 53.1826 91.3292 82.2947 91.3291 119.217C91.3291 154.01 118.166 180.992 152.771 180.992C190.908 180.992 219.157 151.17 219.157 114.247C219.157 80.1648 191.615 53.1827 157.009 53.1826Z" fill="black"/>
</g>
</svg>
