<svg xmlns="http://www.w3.org/2000/svg" viewBox="0 0 48 48"><defs><style>.cls-1{fill:#fff;opacity:0;}.cls-2{fill:#fff;}</style></defs><title>linkedin_hover</title><g id="Layer_2" data-name="Layer 2"><g id="linkedin_hover"><rect id="dont_crop" data-name="dont crop" class="cls-1" width="48" height="48"/><path class="cls-2" d="M40.9,40.9H33.79V29.76c0-2.65,0-6.07-3.7-6.07s-4.28,2.89-4.28,5.88V40.9H18.7V18h6.83v3.13h.1a7.46,7.46,0,0,1,6.73-3.7c7.21,0,8.54,4.74,8.54,10.91V40.9Zm-30.22-26a4.13,4.13,0,1,1,4.12-4.12,4.13,4.13,0,0,1-4.12,4.12Zm3.56,26H7.12V18h7.12V40.9ZM44.45,0H3.54A3.5,3.5,0,0,0,0,3.46V44.54A3.5,3.5,0,0,0,3.54,48H44.45A3.51,3.51,0,0,0,48,44.54V3.46A3.51,3.51,0,0,0,44.45,0Z"/></g></g></svg>
