<svg width="48" height="48" viewBox="0 0 48 48" fill="none" xmlns="http://www.w3.org/2000/svg">
<path fill-rule="evenodd" clip-rule="evenodd" d="M2 8C0.895431 8 0 8.89543 0 10V38C0 39.1046 0.895431 40 2 40H46C47.1046 40 48 39.1046 48 38V10C48 8.89543 47.1046 8 46 8H2ZM4.45397 15.8949C4.78821 15.4552 5.41558 15.3697 5.85524 15.704L17.6644 24.6814C17.6748 24.6887 17.6851 24.6962 17.6953 24.704L23.2445 28.9234C23.2774 28.9483 23.3113 28.9715 23.3463 28.9929C23.4557 29.06 23.5746 29.1097 23.6985 29.1406C23.7965 29.165 23.8978 29.1775 24.0001 29.1775C24.2728 29.1775 24.5381 29.0883 24.7554 28.9235L30.3048 24.704C30.3096 24.7003 30.3144 24.6967 30.3193 24.6932C30.3247 24.6892 30.3302 24.6853 30.3357 24.6814L42.1449 15.704C42.5845 15.3697 43.2119 15.4552 43.5461 15.8949C43.8804 16.3345 43.7949 16.9619 43.3552 17.2961L32.5631 25.5004L43.3552 33.7039C43.7949 34.0381 43.8804 34.6655 43.5462 35.1052C43.2119 35.5448 42.5846 35.6303 42.1449 35.2961L30.9107 26.7566L25.9652 30.5161C25.9232 30.5481 25.8804 30.5789 25.837 30.6086C25.4213 30.8935 24.946 31.077 24.4495 31.1463C24.3012 31.1671 24.1511 31.1776 24.0001 31.1776C23.2907 31.1776 22.6007 30.9455 22.0356 30.5167L17.0894 26.7566L5.85521 35.2961C5.41553 35.6303 4.78816 35.5448 4.45394 35.1052C4.11973 34.6655 4.20522 34.0381 4.6449 33.7039L15.437 25.5004L4.64487 17.2961C4.2052 16.9619 4.11974 16.3345 4.45397 15.8949Z" fill="white"/>
</svg>
