<svg xmlns="http://www.w3.org/2000/svg" viewBox="0 0 48 48"><defs><style>.cls-1{fill:#fff;opacity:0;}.cls-2{fill:#000;}.cls-3{fill:none;stroke:#000;stroke-linecap:round;stroke-linejoin:round;stroke-width:2px;}</style></defs><title>mail_hover</title><g id="Layer_2" data-name="Layer 2"><g id="mail_hover"><rect id="dont_crop" data-name="dont crop" class="cls-1" width="48" height="48"/><path class="cls-2" d="M44,10.25a2,2,0,0,1,2,2v23.5a2,2,0,0,1-2,2H4a2,2,0,0,1-2-2V12.25a2,2,0,0,1,2-2H44m0-2H4a4,4,0,0,0-4,4v23.5a4,4,0,0,0,4,4H44a4,4,0,0,0,4-4V12.25a4,4,0,0,0-4-4Z"/><path class="cls-3" d="M5.25,16.5,22.64,29.72a2.25,2.25,0,0,0,2.72,0L42.75,16.5"/><path class="cls-3" d="M42.75,34.5l-11.84-9-5.55,4.22a2.25,2.25,0,0,1-2.72,0L17.09,25.5l-11.84,9"/></g></g></svg>
