<svg viewBox="0 0 32 32" xmlns="http://www.w3.org/2000/svg">
<path d="M27.1261 4.87569C24.7334 2.483 22.1775 4.03163 20.5779 5.63117L5.46766 20.742C3.86812 22.3413 2.19391 24.7715 4.71218 27.2894C7.23044 29.8082 9.66063 28.1337 11.2598 26.5341L26.3704 11.4237C27.97 9.82399 29.5186 7.26809 27.1261 4.87569Z" />
<path d="M12.6899 4.25681L15.8894 7.45619L19.1462 4.19946C19.3673 3.97784 19.5918 3.77217 19.8177 3.57821C19.4766 1.8575 18.4948 0.30191 15.8879 0.30191C13.2761 0.30191 12.2955 1.86361 11.9563 3.58805C12.2001 3.79898 12.4435 4.01042 12.6899 4.25681Z" />
<path d="M19.1443 28.023L15.8896 24.7681L12.6917 27.9657C12.4489 28.2087 12.2072 28.4306 11.9666 28.6392C12.3333 30.3933 13.3712 32 15.8883 32C18.4119 32 19.4484 30.3847 19.8128 28.6249C19.5889 28.4323 19.365 28.2435 19.1443 28.023Z" />
<path d="M11.3327 12.013H5.16431C2.90262 12.013 0 12.7256 0 16.109C0 18.6335 1.61583 19.6702 3.3759 20.0343C3.58429 19.7937 11.3327 12.013 11.3327 12.013Z" />
<path d="M28.4128 12.1773C28.2176 12.4044 20.4529 20.2047 20.4529 20.2047H26.5338C28.7956 20.2047 31.6981 19.6703 31.6981 16.109C31.6981 13.4975 30.1369 12.5164 28.4128 12.1773Z" />
<path d="M13.3539 9.9883L14.4559 8.8863L11.2583 5.6882C9.65859 4.08883 7.22873 2.41445 4.71047 4.93272C2.86385 6.7793 3.27401 8.5766 4.25348 10.0356C4.5518 10.0135 13.3539 9.9883 13.3539 9.9883Z" />
<path d="M18.424 22.2295L17.3191 23.3344L20.5762 26.5912C22.1758 28.1909 24.7317 29.7392 27.1241 27.3468C28.9092 25.5615 28.4996 23.6863 27.5127 22.1842C27.195 22.2071 18.424 22.2295 18.424 22.2295Z" />
</svg>
