<svg viewBox="0 0 144 144" xmlns="http://www.w3.org/2000/svg">
<path fill-rule="evenodd" clip-rule="evenodd" d="M0 144V72V0H144V144H0ZM12.8 51.4C12.7 37.1 13.0999 25 13.5 24.6C14 24.2 17.5999 24.1 28.5 24.5L29 50.1C29.5 74 29.5999 75.9 31.5 78C32.5999 79.2 34.7 80.8 36.3 81.6C37.8 82.4 40.8999 83 43.3 83C45.7 83 48.8 82.2 50.8 81C52.5 79.9 54.5999 78 55.3 76.7C56.0999 75.2 56.7 66.8 57.5 24.5H72.5L72.7 50C72.8999 66 72.5999 77 71.8999 79.5C71.2 82.2 69.0999 85.2 65.3999 88.7C61.3999 92.6 58.5999 94.4 54.8 95.5C51.8999 96.3 46.2 97 42.3 97C37.7 97 33.2 96.3 30.3 95.2C27.5999 94.2 23.8 92.1 21.7 90.5C19.5999 88.8 16.7 85.2 15.3999 82.5C13.0056 77.6113 13 76.9033 12.8015 51.577L12.8 51.4ZM80.8 87.2C80.7 66.4 81.0999 49 81.5 48.6C82 48.3 83 48.2 83.7 48.5C84.3999 48.8 87.5 49 90.5 49C94.7 49 96 49.3 96 50.5C96 51.3 96.0999 52 96.3 52C96.3999 52 98.3 51.1 100.5 50C103.1 48.7 106.5 48 110.3 48C113.9 48 117.4 48.7 119.8 49.9C121.8 50.9 125.2 53.6 127.3 55.9C129.5 58.4 131.6 62.1 132.5 65.2C133.3 68.1 134 71.4 134 72.5C134 73.6 133.3 76.9 132.5 79.7C131.6 82.9 129.5 86.6 127.3 89.1C125.2 91.4 121.8 94.1 119.8 95.1C117.4 96.3 113.9 97 110.3 97C106.5 97 103.1 96.3 100.5 95C98.3 93.9 96.3999 93 96.3 93C96.0999 93 96 100.2 96 125H81L80.8 87.2Z" />
<path d="M101.3 63C99.5 64.1 97.5 65.9 97 67C96.5 68.1 96 70.8 96 73C96 76 96.7 77.7 98.8 79.9C100.3 81.5 102.6 83.1 104 83.5C105.4 83.9 107.8 83.9 109.5 83.5C111.2 83.1 113.7 81.5 115.3 79.9C117.4 77.7 118 76 118 72.7C118 70.4 117.3 67.5 116.5 66.2C115.7 65 113.7 63.3 112 62.5C110.3 61.7 108 61 106.8 61C105.5 61 103 61.9 101.3 63Z" />
</svg>
