<svg width="32" height="32" viewBox="0 0 32 32" fill="none" xmlns="http://www.w3.org/2000/svg">
<g clip-path="url(#clip0)">
<path d="M32 9L26.6667 16.3407L32 23.6814H25.4076L23.3705 20.8775L21.3333 23.6814H14.741L18.0372 19.1446L23.3705 20.8775L20.0743 16.3407L23.3705 11.8039L18.0372 13.5368L14.741 9H21.3333L23.3705 11.8039L25.4076 9H32Z" fill="black"/>
<path d="M14.7408 9V14.6078L9.40747 16.3407V9H14.7408Z" fill="black"/>
<path d="M5.3333 9V19.1446C5.3333 20.8775 7.37048 20.8775 7.37048 20.8775C7.37048 20.8775 9.40767 20.8775 9.40767 19.1446V16.3407L14.741 18.0736C14.741 23.6814 7.37048 23.6814 7.37048 23.6814C7.37048 23.6814 0 23.6814 0 18.0736V9H5.3333Z" fill="black"/>
</g>
<defs>
<clipPath id="clip0">
<rect width="32" height="32" fill="white"/>
</clipPath>
</defs>
</svg>
