<svg viewBox="0 0 434 97" fill="none" xmlns="http://www.w3.org/2000/svg">
  <g clip-path="url(#clip0_1738_707)">
    <path fill-rule="evenodd" clip-rule="evenodd"
      d="M185.8 47.3C188.417 46.2881 190.662 44.5008 192.235 42.1774C193.807 39.854 194.633 37.1055 194.6 34.3C194.6 22.6 186.3 16.8 174.9 16.8H145V80.4H177.5C187.5 80.4 197.3 73.4 197.3 62.7C197.3 50 185.8 47.4 185.8 47.3ZM160.6 30H172.2C173.001 29.9518 173.802 30.0739 174.552 30.3583C175.302 30.6428 175.983 31.0831 176.55 31.6502C177.117 32.2173 177.557 32.8982 177.842 33.648C178.126 34.3979 178.248 35.1995 178.2 36C178.184 36.8001 178.007 37.5886 177.679 38.3182C177.35 39.0478 176.877 39.7034 176.289 40.2453C175.7 40.7873 175.008 41.2045 174.253 41.4716C173.499 41.7388 172.699 41.8506 171.9 41.8H160.6V30ZM172.3 67.1001H160.6V54.6H172C177.7 54.6 180.4 57.1 180.4 60.8C180.4 65.4 177 67.1001 172.3 67.1001Z"
      fill="currentColor" />
    <path fill-rule="evenodd" clip-rule="evenodd"
      d="M231.7 15.2C213.3 15.2 202.5 29.9 202.5 48.5C202.5 67.2 213.3 81.8 231.7 81.8C250.2 81.8 260.9 67.2 260.9 48.5C260.9 29.9 250.2 15.2 231.7 15.2ZM231.7 66.6C222.7 66.6 218.2 58.5 218.2 48.5C218.2 38.5 222.7 30.5 231.7 30.5C240.7 30.5 245.3 38.6 245.3 48.5C245.3 58.6 240.7 66.6 231.7 66.6Z"
      fill="currentColor" />
    <path fill-rule="evenodd" clip-rule="evenodd"
      d="M294.799 41.8001L292.599 41.3001C287.199 40.2001 282.899 38.8001 282.899 34.9001C282.899 30.7001 286.999 29.0001 290.599 29.0001C293.055 29.0387 295.477 29.5825 297.713 30.5975C299.95 31.6125 301.953 33.0771 303.599 34.9001L313.499 25.1001C308.999 20.0001 301.699 15.1001 290.299 15.1001C276.899 15.1001 266.699 22.6001 266.699 35.1001C266.699 46.5001 274.899 52.1001 284.899 54.2001L287.099 54.7001C295.399 56.4001 298.499 57.7001 298.499 61.7001C298.499 65.5001 295.099 68.0001 289.899 68.0001C283.699 68.0001 278.099 65.3001 273.799 59.8001L263.699 69.8001C269.299 76.5001 276.399 81.7001 290.099 81.7001C301.999 81.7001 314.699 74.9001 314.699 61.0001C314.899 46.5001 303.899 43.7001 294.799 41.8001Z"
      fill="currentColor" />
    <path fill-rule="evenodd" clip-rule="evenodd"
      d="M350.302 64.6001C343.302 64.6001 336.002 58.8 336.002 46.1C336.002 34.8 342.802 28.5 349.902 28.5C355.502 28.5 358.802 31.1 361.402 35.6L374.202 27.1C367.802 17.4 360.202 13.3 349.702 13.3C330.502 13.3 320.102 28.2 320.102 46.2C320.102 65.1 331.602 79.9 349.502 79.9C362.102 79.9 368.102 75.5001 374.602 66.1001L361.702 57.4C359.102 61.6 356.302 64.6001 350.302 64.6001Z"
      fill="currentColor" />
    <path fill-rule="evenodd" clip-rule="evenodd"
      d="M416.898 16.8V40.2H397.598V16.8H380.898V80.4H397.598V55.3H416.898V80.4H433.598V16.8H416.898Z"
      fill="currentColor" />
    <path
      d="M48.8016 0.600098C39.2685 0.600098 29.9496 3.42698 22.0231 8.72327C14.0967 14.0196 7.91874 21.5474 4.27059 30.3548C0.622448 39.1622 -0.332074 48.8536 1.52773 58.2035C3.38754 67.5533 7.97815 76.1418 14.719 82.8827C21.4599 89.6235 30.0483 94.2141 39.3982 96.074C48.7481 97.9338 58.4395 96.9792 67.2469 93.3311C76.0543 89.6829 83.5821 83.505 88.8784 75.5786C94.1747 67.6521 97.0016 58.3332 97.0016 48.8001C96.9947 36.0188 91.9143 23.7629 82.8765 14.7252C73.8388 5.6874 61.5829 0.606987 48.8016 0.600098ZM48.8016 92.5001C40.1585 92.5001 31.7096 89.9371 24.5232 85.1353C17.3367 80.3335 11.7356 73.5085 8.42806 65.5234C5.12051 57.5382 4.2551 48.7516 5.94127 40.2747C7.62744 31.7977 11.7895 24.0111 17.901 17.8995C24.0126 11.788 31.7992 7.62596 40.2761 5.93978C48.7531 4.25361 57.5397 5.11902 65.5249 8.42657C73.51 11.7341 80.335 17.3353 85.1368 24.5217C89.9386 31.7081 92.5016 40.1571 92.5016 48.8001C92.4897 60.3864 87.8818 71.4947 79.689 79.6875C71.4962 87.8803 60.3879 92.4882 48.8016 92.5001Z"
      fill="currentColor" />
    <path
      d="M68.6994 18.7H65.3994V35.2H32.2994V18.7H28.8994C23.9202 21.9857 19.8338 26.4554 17.0065 31.7086C14.1792 36.9618 12.6992 42.8343 12.6992 48.8C12.6992 54.7656 14.1792 60.6382 17.0065 65.8913C19.8338 71.1445 23.9202 75.6142 28.8994 78.8999H32.2994V62.4H65.3994V78.8999H68.6994C73.6787 75.6142 77.7651 71.1445 80.5924 65.8913C83.4197 60.6382 84.8997 54.7656 84.8997 48.8C84.8997 42.8343 83.4197 36.9618 80.5924 31.7086C77.7651 26.4554 73.6787 21.9857 68.6994 18.7ZM27.6994 72.3999C24.3662 69.4379 21.6982 65.8033 19.8712 61.7355C18.0442 57.6678 17.0996 53.2592 17.0996 48.8C17.0996 44.3408 18.0442 39.9321 19.8712 35.8644C21.6982 31.7966 24.3662 28.162 27.6994 25.2V72.3999ZM65.3994 57.8H32.2994V39.7H65.3994V57.8ZM69.8994 72.3V62.3V35.2V25.2C73.2038 28.169 75.8464 31.8003 77.6554 35.8576C79.4644 39.915 80.3993 44.3076 80.3993 48.75C80.3993 53.1923 79.4644 57.5849 77.6554 61.6423C75.8464 65.6996 73.2038 69.3309 69.8994 72.3Z"
      fill="currentColor" />
  </g>
</svg>