<svg width="16" height="16" viewBox="0 0 16 16" fill="none" xmlns="http://www.w3.org/2000/svg">
<path d="M1 8L0.646447 7.64645C0.451184 7.84171 0.451184 8.15829 0.646447 8.35355L1 8ZM15 8.5C15.2761 8.5 15.5 8.27614 15.5 8C15.5 7.72386 15.2761 7.5 15 7.5V8.5ZM5.85355 3.85355C6.04882 3.65829 6.04882 3.34171 5.85355 3.14645C5.65829 2.95118 5.34171 2.95118 5.14645 3.14645L5.85355 3.85355ZM5.14645 12.8536C5.34171 13.0488 5.65829 13.0488 5.85355 12.8536C6.04882 12.6583 6.04882 12.3417 5.85355 12.1464L5.14645 12.8536ZM1 8.5H15V7.5H1V8.5ZM1.35355 8.35355L5.85355 3.85355L5.14645 3.14645L0.646447 7.64645L1.35355 8.35355ZM0.646447 8.35355L5.14645 12.8536L5.85355 12.1464L1.35355 7.64645L0.646447 8.35355Z" fill="black"/>
</svg>
